<?xml version="1.0" encoding="utf-8"?>
<!-- Generator: Adobe Illustrator 23.0.0, SVG Export Plug-In . SVG Version: 6.00 Build 0)  -->
<svg version="1.1" id="Layer_1" xmlns="http://www.w3.org/2000/svg" xmlns:xlink="http://www.w3.org/1999/xlink" x="0px" y="0px"
	 viewBox="0 0 200 36" style="enable-background:new 0 0 200 36;" xml:space="preserve">
<style type="text/css">
	.st0{fill:#67EE94;}
	.st1{fill:#9744FF;}
</style>
<g>
	<g>
		<polygon points="32.5,1.9 30.5,1.9 20.7,25 10.9,1.9 8.9,1.9 8.9,1.9 3.1,1.9 3.1,35.4 8.9,35.4 8.9,12.1 17.5,32.5 18.8,35.4 
			22.7,35.4 23.9,32.5 32.5,12.3 32.5,35.4 38.3,35.4 38.3,1.9 32.5,1.9 		"/>
		<rect x="125.6" y="10.2" width="5.8" height="25.2"/>
		<path d="M164.1,10.2h-5.8v16.2v2.3c0,4.6,2.9,7.3,7.3,7.2c1.6,0,3.2-0.4,4.1-0.7l0.8-5c0,0-2.2,0.5-3,0.6
			c-1.8,0.3-3.4-0.1-3.4-2.6v-1.8v-11h7.2l0.8-5.2L164.1,10.2L164.1,10.2z"/>
		<path d="M54.8,9.7c-7.4,0-13.4,5.9-13.4,13.2S47.4,36,54.8,36c7.4,0,13.4-5.9,13.4-13.2S62.2,9.7,54.8,9.7z M54.8,30.9
			c-4.1,0-7.5-3.6-7.5-8s3.4-8,7.5-8c4.1,0,7.5,3.6,7.5,8S58.9,30.9,54.8,30.9z"/>
		<path d="M85,9.7c-3.1,0-5.9,1.2-8,3.2V1.9h-5.8v33.5H77v-2.6c2.1,2,4.9,3.2,8,3.2c6.8,0,12.3-5.9,12.3-13.2S91.8,9.7,85,9.7z
			 M84.3,30.3c-4,0-7.2-3.4-7.2-7.5s3.2-7.5,7.2-7.5c4,0,7.2,3.4,7.2,7.5S88.3,30.3,84.3,30.3z"/>
		<polygon points="110.3,27.3 103.7,10.2 97.3,10.2 107.6,35.4 113,35.4 123.2,10.2 116.9,10.2 		"/>
		<path d="M145.4,20.2c-4.4-1.4-4.3-2.7-4.3-3.6c0.1-0.6,0.8-2.2,3.5-2.2c2,0,3.8,1,4.7,2.6l4.5-2.1c-0.9-1.7-3.1-5.1-9.1-5.1
			c-7.3,0-9,4.7-9,7.2c0,5.3,5,6.8,6.9,7.6c1.9,0.7,6.6,1.8,6.6,4.1c0,2.2-2.7,2.7-3.9,2.7c-1.2,0-4.3-0.2-4.8-3h-5.1
			c0.3,3.4,2.2,7.6,9.8,7.6c6.7,0,9.4-4,9.4-7.8C154.6,23.3,150,21.7,145.4,20.2z"/>
		<path d="M185.9,9.7c-8.4,0-11,4.9-11,8.4h5.6c0,0,0.1-3.2,5.4-3.2c4.2,0,5.1,3.1,5.1,5.9c0,0,0,0,0,0c-4.2-1.1-17.6-2.1-17.6,7.3
			c0,4.4,3.9,7.9,9,7.9c3.9,0,6.2-0.8,8.7-3.2c0,1.6,0,2.6,0,2.6h5.8c0,0,0-10.4,0-15.4C196.9,15,194.3,9.7,185.9,9.7z M185.2,31.5
			c-3.8,0.7-5.9-1.3-5.8-3.5c0.1-3.3,6.6-4.9,11.7-2.5c0,0.2,0,0.3,0,0.5C190.6,28.4,187.8,31,185.2,31.5z"/>
	</g>
	<rect x="145.5" class="st0" width="12.8" height="5.8"/>
	<rect x="125.6" class="st1" width="19.9" height="5.8"/>
	<rect x="158.3" width="5.8" height="5.8"/>
</g>
</svg>
