<svg viewBox="0 0 385 40" fill="none" xmlns="http://www.w3.org/2000/svg">
<path d="M240.052 25.1222C239.392 28.1184 238.393 30.5052 237.141 32.2487C234.688 35.6173 231.236 37.4624 225.652 39.0875C225.195 39.206 225.127 39.2398 224.958 39.2567C224.687 39.3075 224.298 39.206 224.044 38.7997C223.943 38.6473 223.333 37.5301 222.91 36.9038C222.657 36.5145 222.877 35.8204 223.367 35.7019C228.359 34.4831 231.506 32.9766 233.706 30.2682C234.671 29.1002 235.364 27.1873 235.872 25.1052H231.337C227.259 25.1052 226.261 25.1729 226.007 25.1729C225.533 25.1729 225.161 24.7667 225.161 24.3435V22.0075C225.161 21.5504 225.567 21.195 225.99 21.195C226.244 21.195 227.242 21.2627 231.337 21.2627H236.295C236.295 21.2627 236.43 18.1649 236.43 17.2677C236.43 16.743 236.904 16.4214 237.31 16.4383C238.444 16.506 238.952 16.5399 239.899 16.6753C240.627 16.7768 240.745 17.3355 240.695 17.7417C240.644 18.0803 240.458 21.2627 240.458 21.2627H247.463C251.507 21.2627 252.573 21.195 252.827 21.195C253.284 21.195 253.673 21.5674 253.673 22.0244C253.588 23.2263 253.555 24.0557 253.504 25.1729C253.165 31.5547 252.793 33.9584 251.676 36.3283C250.796 38.038 249.172 39.206 246.059 39.206C244.942 39.206 244.096 39.206 243.097 39.1721C242.894 39.1721 242.708 39.1721 242.556 39.1552C242.217 39.1382 241.862 38.952 241.744 38.495C241.693 38.3088 241.676 38.1057 241.625 37.801C241.49 37.1239 241.338 36.5652 241.084 35.9728C240.898 35.5496 241.338 34.974 241.896 35.0079C243.182 35.0925 244.316 35.1433 245.551 35.1433C247.091 35.1433 247.835 34.4324 248.258 32.8073C248.631 31.1823 248.969 28.7785 249.087 25.1052H240.052V25.1222ZM251.135 10.8183C255.044 10.8183 256.008 10.7506 256.313 10.7506C256.82 10.7506 257.159 11.1738 257.159 11.597C257.159 11.8509 257.108 12.1894 257.108 13.3236V15.0671C257.108 18.6897 257.176 18.1988 257.176 18.4527C257.176 18.9266 256.787 19.2991 256.364 19.2991H253.639C253.216 19.2991 252.827 18.9097 252.827 18.5035V14.6947H226.701V18.4865C226.701 18.9097 226.328 19.2991 225.872 19.2991C225.872 19.2991 223.181 19.2991 223.147 19.2991C222.809 19.2991 222.284 19.0451 222.301 18.368C222.318 17.8602 222.369 17.5894 222.369 15.0164V13.6452C222.369 12.6296 222.318 11.9694 222.301 11.5631C222.301 11.36 222.487 10.7337 223.215 10.7506C223.892 10.7675 225.398 10.8183 228.325 10.8183H245.365C246.532 8.90549 247.531 6.82339 248.529 4.43659C248.681 4.08111 248.8 3.60714 248.969 3.01467C249.121 2.47299 249.663 2.33756 249.967 2.4222C251.135 2.7269 251.998 2.99774 252.929 3.37015C253.301 3.53943 253.487 4.09804 253.301 4.43659C253.064 4.87671 252.912 5.18141 252.692 5.57074C251.727 7.44971 250.813 9.07476 249.697 10.8183H251.152H251.135ZM238.41 1.88052C238.918 1.67739 239.307 2.06672 239.358 2.11751C240.525 3.67485 241.574 5.31683 242.37 7.16194C242.471 7.44971 242.42 7.99139 241.879 8.22838L239.442 9.19326C238.884 9.39639 238.512 9.09169 238.359 8.77007C237.446 6.60333 236.786 5.38454 235.754 3.84412C235.534 3.45479 235.72 2.89618 236.143 2.70997L238.41 1.86359V1.88052ZM229.036 1.88052C229.543 1.67739 229.933 2.06672 229.983 2.11751C231.151 3.67485 232.2 5.31683 232.995 7.16194C233.097 7.44971 233.046 7.99139 232.505 8.22838L230.068 9.19326C229.51 9.39639 229.137 9.09169 228.985 8.77007C228.071 6.60333 227.411 5.38454 226.379 3.84412C226.159 3.45479 226.345 2.89618 226.768 2.70997L229.036 1.86359V1.88052Z" fill="#23221F"/>
<path d="M277.128 23.6591C276.823 24.2007 276.281 24.1838 275.977 24.0145C275.469 23.7437 274.725 23.439 274.234 23.2189C273.777 23.0158 273.693 22.4064 273.828 22.1356C274.471 20.9168 274.826 20.1889 275.266 19.0717H272.897V29.9054C272.897 31.7843 273.016 33.1724 273.016 34.8482C273.016 36.5918 272.762 37.5228 271.679 38.4369C270.934 39.0124 269.885 39.2663 266.755 39.2663C266.586 39.2663 266.433 39.2663 266.298 39.2663C265.909 39.2663 265.536 39.1478 265.384 38.6569C265.333 38.4877 265.283 38.2676 265.215 37.9798C265.063 37.3704 264.91 36.9303 264.69 36.4225C264.504 35.9993 264.978 35.4238 265.486 35.4576C266.146 35.5084 266.839 35.5084 267.499 35.5084C268.667 35.5084 268.955 35.1698 268.955 34.3065V27.2816C268.955 25.9951 268.955 24.6916 268.988 23.4051C267.939 26.2828 266.484 29.1098 264.115 31.9875C264.03 32.089 263.946 32.1906 263.861 32.2583C263.455 32.6138 262.863 32.4614 262.677 32.1737C262.609 32.0721 262.575 32.0044 262.491 31.869C262.186 31.2765 261.78 30.701 261.374 30.2439C260.968 29.7869 261.154 29.296 261.408 29.059C264.031 26.3844 266.146 22.5588 267.499 19.0717H267.042C263.54 19.0717 262.761 19.1394 262.508 19.1394C262.085 19.1394 261.662 18.7839 261.662 18.3269V16.2617C261.662 15.8046 262.017 15.4153 262.525 15.4153C262.778 15.4153 263.523 15.4661 267.026 15.4661H269.31C267.973 14.1627 266.501 13.1131 264.995 11.8943C264.792 11.7251 264.403 11.1665 264.893 10.6248C264.944 10.5571 266.196 9.50755 266.196 9.50755C266.619 9.13515 267.009 9.10129 267.381 9.3552L269.75 11.0649C270.917 9.86303 271.967 8.69503 272.965 7.27311H267.635C264.335 7.27311 263.607 7.34082 263.371 7.34082C262.931 7.34082 262.558 6.95148 262.558 6.51136C262.558 6.51136 262.558 4.42926 262.558 4.29384C262.592 3.70138 263.066 3.44746 263.455 3.46439C264.047 3.49824 265.249 3.5321 267.652 3.5321H274.86C275.232 3.5321 276.298 3.5321 276.704 3.5321C276.704 3.5321 276.992 3.5321 277.28 3.78601C277.449 3.93836 277.635 4.12457 277.855 4.36155C278.43 4.95402 278.718 5.3095 278.853 5.6142C278.955 5.81733 278.989 6.22359 278.684 6.54522C278.346 6.91763 277.686 7.61166 277.229 8.1872C275.858 10.0154 274.437 11.7251 272.559 13.4348C272.897 13.7733 273.219 14.1457 273.608 14.4843C273.896 14.772 274.572 15.483 274.572 15.483H277.094C277.517 15.483 277.771 15.4322 278.058 15.6692C278.21 15.8046 278.397 15.957 278.6 16.1432C279.598 17.0573 279.683 17.362 279.496 17.8867C279.361 18.2761 277.94 22.0679 277.077 23.6421L277.128 23.6591ZM284.607 21.2553C284.505 21.2892 284.421 21.34 284.336 21.3738C283.507 21.7124 283.507 21.7124 282.525 21.9663C282.018 22.1017 281.713 22.0171 281.459 21.4585C281.273 21.0353 280.63 19.3594 280.63 19.3594C280.461 18.9193 280.732 18.4961 281.222 18.3607C283.49 17.7344 284.454 17.2773 286.163 16.2278C284.911 15.026 283.794 13.6379 282.915 12.2329L280.986 14.4166C280.647 14.789 279.987 14.7043 279.683 14.2981C279.158 13.7395 278.617 13.2824 278.109 12.8254C277.686 12.453 277.804 11.8436 278.075 11.6066C280.546 9.28749 282.204 6.96841 283.405 4.42926C283.727 3.75216 283.947 3.12583 284.15 2.49951C284.353 1.87319 284.861 1.82241 285.148 1.87319C286.197 2.07632 286.874 2.26253 287.686 2.44873C288.126 2.56722 288.329 3.12583 288.177 3.49824C287.974 3.98914 287.737 4.37848 287.483 4.88631C287.28 5.3095 287.111 5.56342 286.908 5.93582H293.998C297.247 5.93582 297.822 5.88504 298.076 5.88504C298.82 5.88504 299.007 6.4098 299.007 6.83299V8.69503C299.007 9.11822 298.584 9.4737 298.161 9.4737C297.958 9.4737 297.67 9.43984 295.961 9.38906C295.081 12.0636 293.744 14.315 292.12 16.1432C294.083 17.345 296.418 18.1576 299.007 18.7162C299.497 18.8178 299.768 19.3933 299.599 19.7657C299.294 20.4259 298.821 21.5939 298.533 22.271C298.381 22.6434 298.127 23.0666 297.247 22.7957C294.455 21.9155 291.527 20.5105 289.142 18.767C288.042 19.5456 286.908 20.2227 285.707 20.7814L284.59 21.2723L284.607 21.2553ZM286.57 21.9324C287.466 22.0171 288.397 22.1186 289.243 22.2033C289.565 22.2371 290.021 22.6095 289.937 23.1343L289.565 24.9963H292.323C296.079 24.9963 296.959 24.9286 297.213 24.9286C297.636 24.9286 298.11 25.2333 298.093 25.775L297.958 27.9925C297.704 32.0721 297.501 34.6451 296.587 36.4394C295.842 38.1491 294.624 39.2663 291.917 39.2663C291.206 39.2663 290.411 39.2663 289.548 39.2325C288.769 39.1761 288.284 38.6908 288.092 37.7767C287.974 37.2181 287.856 36.7272 287.669 36.2194C287.534 35.847 288.008 35.3222 288.465 35.373C289.243 35.4576 290.005 35.5253 290.749 35.5253C291.798 35.5253 292.34 35.3561 292.746 34.6451C293.321 33.6464 293.575 31.4627 293.795 28.5004H288.939C287.433 33.494 284.59 36.5579 279.632 38.9786C279.124 39.1817 278.837 39.3171 278.633 39.3171C278.295 39.3171 278.126 39.0632 277.72 38.3522C277.415 37.7767 277.009 37.1842 276.569 36.7103C276.298 36.4225 276.434 35.7623 276.721 35.6607C280.681 34.1711 283.219 32.2752 284.691 28.5173H283.981C280.275 28.5173 279.023 28.585 278.769 28.585C278.261 28.585 277.923 28.1618 277.923 27.7386V25.775C277.923 25.318 278.312 24.9286 278.769 24.9286C279.023 24.9286 279.886 24.9963 283.591 24.9963H285.503C285.588 24.4885 285.622 24.3531 285.656 23.7776C285.69 23.3036 285.707 23.3713 285.69 22.7957C285.69 22.0848 286.248 21.8817 286.603 21.9155L286.57 21.9324ZM285.571 9.37213C286.451 11.031 287.619 12.5376 289.023 13.8749C290.191 12.6222 291.104 11.1157 291.731 9.37213H285.571Z" fill="#23221F"/>
<path d="M320.807 8.24662C320.468 8.24662 319.774 8.19584 316.441 8.19584C316.864 8.94066 317.101 9.36385 317.473 10.261C317.642 10.6842 317.473 11.2936 316.898 11.429L314.58 11.903C314.19 11.9707 313.734 11.7676 313.598 11.3105C313.26 10.2272 312.888 9.29614 312.397 8.21277H309.774C308.894 9.46541 308.014 10.3626 306.847 11.4121C306.61 11.6321 306.085 11.8014 305.679 11.3782C305.222 10.8535 304.444 10.1087 304.021 9.80397C303.733 9.60083 303.632 8.97451 304.021 8.6021C305.831 6.97705 306.847 5.92754 307.93 3.72695C308.167 3.28683 308.336 2.88057 308.505 2.40659C308.64 1.9834 309.097 1.83105 309.385 1.86491C310.536 2.00033 311.382 2.13575 312.143 2.30503C312.617 2.40659 312.888 2.99906 312.6 3.54074L311.805 4.87803H316.255C319.758 4.87803 320.536 4.79339 320.79 4.79339C321.247 4.79339 321.636 5.23351 321.636 5.63977V7.41717C321.636 7.82343 321.314 8.26355 320.79 8.26355L320.807 8.24662ZM341.349 8.24662C341.011 8.24662 340.317 8.19584 336.983 8.19584C337.406 8.94066 337.643 9.36385 338.016 10.261C338.185 10.6842 338.016 11.2936 337.44 11.429L335.122 11.903C334.733 11.9707 334.276 11.7676 334.141 11.3105C333.802 10.2272 333.43 9.29614 332.939 8.21277H330.316C329.436 9.46541 328.557 10.3626 327.389 11.4121C327.152 11.6321 326.628 11.8014 326.221 11.3782C325.765 10.8535 324.986 10.1087 324.563 9.80397C324.276 9.60083 324.174 8.97451 324.563 8.6021C326.374 6.97705 327.389 5.92754 328.472 3.72695C328.709 3.28683 328.878 2.88057 329.047 2.40659C329.183 1.9834 329.64 1.83105 329.927 1.86491C331.078 2.00033 331.924 2.13575 332.685 2.30503C333.159 2.40659 333.43 2.99906 333.142 3.54074L332.347 4.87803H336.797C340.3 4.87803 341.078 4.79339 341.332 4.79339C341.789 4.79339 342.178 5.23351 342.178 5.63977V7.41717C342.178 7.82343 341.857 8.26355 341.332 8.26355L341.349 8.24662ZM323.666 11.9199C323.666 12.2923 323.666 12.6647 323.666 13.2403H333.041C336.95 13.2403 337.965 13.1726 338.252 13.1726C338.76 13.1726 339.099 13.5958 339.099 14.0189C339.099 14.2729 339.031 14.4929 339.031 15.407V16.8628C339.031 20.0283 339.099 20.2314 339.099 20.4853C339.099 21.0101 338.675 21.3317 338.252 21.3317H335.748C335.325 21.3317 334.902 21.0101 334.902 20.4853V16.5412H308.979V20.5022C308.979 20.9254 308.606 21.3317 308.15 21.3317H305.611C305.188 21.3317 304.799 20.9593 304.799 20.5361C304.799 20.2483 304.85 20.0452 304.85 16.8797V15.6779C304.85 14.5098 304.799 14.2729 304.799 14.0189C304.799 13.528 305.205 13.1726 305.611 13.1726C305.899 13.1726 306.931 13.2572 310.84 13.2572H319.504C319.47 12.5632 319.47 12.2754 319.385 11.6491C319.351 11.3613 319.622 10.8027 320.248 10.8196C321.247 10.8535 322.143 10.9043 322.956 10.955C322.956 10.955 323.649 11.0228 323.649 11.9368L323.666 11.9199ZM326.763 18.454C330.435 18.454 331.687 18.3693 331.941 18.3693C332.567 18.3693 332.821 18.8602 332.821 19.2665C332.821 19.5204 332.77 19.859 332.77 21.6872V23.5831C332.77 25.4112 332.821 25.7329 332.821 26.0376C332.821 26.5962 332.415 26.9009 331.873 26.9009C331.619 26.9009 330.435 26.8501 326.763 26.8501H315.223V28.966H329.047C332.838 28.966 334.361 28.8983 334.648 28.8983C335.071 28.8983 335.494 29.2369 335.494 29.6939C335.494 29.9478 335.427 30.4726 335.427 32.5547V35.8387C335.427 37.9208 335.494 38.2593 335.494 38.4794C335.494 38.9026 335.122 39.2919 334.699 39.2919H332.059C331.636 39.2919 331.213 38.9703 331.213 38.4455V37.8023H315.206V38.4624C315.206 38.9364 314.8 39.2919 314.394 39.2919H311.872C311.398 39.2919 311.009 38.9364 311.009 38.4286C311.009 38.1747 311.077 37.4129 311.077 34.2136V23.5323C311.077 20.316 311.009 19.4866 311.009 19.2327C311.009 18.8095 311.382 18.4032 311.805 18.4032C312.058 18.4032 313.632 18.4709 317.372 18.4709H326.746L326.763 18.454ZM328.607 21.5348H315.24V23.7693H328.607V21.5348ZM315.223 32.1315V34.6199H331.23V32.1315H315.223Z" fill="#23221F"/>
<path d="M355.158 26.9132C356.241 26.4223 357.002 26.0329 358.085 25.542C358.542 25.3389 359.168 25.6944 359.151 26.1007C359.151 26.6423 359.151 27.1332 359.185 27.658C359.208 28.5721 358.858 29.2379 358.136 29.6555C355.395 31.1112 352.992 32.1438 349.828 33.3457C349.168 33.6335 348.745 33.8366 348.305 34.0228C347.983 34.1582 347.459 34.0059 347.289 33.5827C346.985 32.6855 346.748 31.7714 346.46 30.6034C346.393 30.3495 346.545 29.8078 347.086 29.6724C348.051 29.4185 351.012 28.5552 351.012 28.5552V19.5158C348.389 19.5158 348.288 19.5835 348.034 19.5835C347.577 19.5835 347.205 19.1942 347.205 18.771V16.5027C347.205 16.0456 347.594 15.6732 348.017 15.6732C348.271 15.6732 348.372 15.7409 350.995 15.7409V8.68212H350.741C347.949 8.68212 347.831 8.74983 347.577 8.74983C347.07 8.74983 346.731 8.32664 346.731 7.90345V5.63515C346.731 5.1781 347.103 4.78877 347.577 4.78877C347.831 4.78877 347.949 4.85648 350.741 4.85648H355.073C357.899 4.85648 358.085 4.78877 358.288 4.78877C358.711 4.78877 359.117 5.14425 359.117 5.60129V7.90345C359.117 8.41128 358.694 8.74983 358.271 8.74983C358.068 8.74983 357.899 8.68212 355.107 8.68212V15.7409C357.391 15.7409 357.425 15.6732 357.679 15.6732C358.153 15.6732 358.525 16.0626 358.525 16.5196V18.7541C358.525 19.1773 358.187 19.6004 357.696 19.6004C357.442 19.6004 357.408 19.5327 355.124 19.5327V26.947L355.158 26.9132ZM363.483 39.2026C359.354 39.2026 358.356 39.2704 358.102 39.2704C357.662 39.2704 357.222 38.9487 357.222 38.424V36.2572C357.222 35.7325 357.645 35.4109 358.068 35.4109C358.322 35.4109 359.354 35.4786 363.466 35.4786H369.795V30.6373H367.206C363.365 30.6373 362.468 30.705 362.214 30.705C361.791 30.705 361.368 30.3156 361.368 29.9094V27.7934C361.368 27.3702 361.706 26.947 362.214 26.947C362.468 26.947 363.365 27.0148 367.206 27.0148H369.795V23.0706H367.087C363.297 23.0706 362.265 23.1383 362.011 23.1383C361.554 23.1383 361.182 22.7321 361.182 22.3427C361.182 22.0888 361.249 21.1409 361.249 18.0939V8.83447C361.249 5.87214 361.182 4.94112 361.182 4.65335C361.182 4.23016 361.537 3.84082 362.028 3.84082C362.282 3.84082 363.297 3.90853 367.087 3.90853H377.003C380.844 3.90853 381.741 3.84082 382.029 3.84082C382.469 3.84082 382.909 4.17937 382.909 4.72106C382.909 4.97497 382.841 5.87214 382.841 8.83447V18.0939C382.841 21.1409 382.909 22.0211 382.909 22.275C382.909 22.6813 382.604 23.1214 382.063 23.1214C381.775 23.1214 380.844 23.0537 377.003 23.0537H373.957V26.9978H377.122C380.912 26.9978 381.86 26.9301 382.113 26.9301C382.536 26.9301 382.959 27.3025 382.959 27.8103V30.2479C382.959 30.6711 382.926 30.705 382.503 30.705C382.249 30.705 380.912 30.6203 377.122 30.6203H373.957V35.4616H378.746C382.824 35.4616 383.941 35.3939 384.161 35.3939C384.584 35.3939 384.956 35.8171 384.956 36.2403V38.407C384.956 38.9149 384.533 39.2534 384.11 39.2534C383.907 39.2534 382.824 39.1857 378.746 39.1857H363.449L363.483 39.2026ZM369.812 11.6952V7.48026H365.192V11.6952H369.812ZM369.812 19.5666V15.1146H365.192V19.5666H369.812ZM373.974 7.48026V11.6952H378.898V7.48026H373.974ZM378.898 15.1146H373.974V19.5666H378.898V15.1146Z" fill="#23221F"/>
<path d="M20.9254 17.5898L15.4768 15.423C12.2448 14.1535 9.90969 13.2394 9.90969 11.0049C9.90969 8.77047 11.771 7.45011 14.8845 7.45011C17.5073 7.45011 19.7578 8.19493 22.2452 9.88769C22.6006 10.1416 23.0913 10.057 23.379 9.71842L26.7294 5.50344C27.017 5.14795 26.9493 4.64012 26.6109 4.33543C23.4805 1.61008 19.1825 0.00195312 14.9014 0.00195312C6.98232 0.00195312 1.00914 4.96175 1.00914 11.5297C1.00914 18.0976 6.42393 21.0599 8.75905 21.974L14.4277 24.3608C17.4565 25.6304 19.4533 26.4598 19.4533 28.7789C19.4533 30.167 18.7595 32.503 14.0554 32.503C11.3142 32.503 7.9976 31.2334 5.2056 29.1344C4.85025 28.8636 4.34262 28.9144 4.05496 29.2529L0.14616 34.0096C-0.1415 34.3651 -0.107657 34.8898 0.247688 35.1776C3.98727 38.2584 8.86058 40.002 13.8354 40.002C23.8866 40.002 28.4723 33.8064 28.4723 28.051C28.4723 22.9897 26.0694 19.6719 20.9254 17.5898ZM63.7868 10.9711C61.9762 10.9711 60.3687 11.3435 58.9812 12.0544C57.5936 12.7823 56.443 13.8149 55.5462 15.1691C54.8863 13.7472 53.9217 12.6977 52.7034 12.0036C51.4682 11.3096 49.996 10.9711 48.287 10.9711C46.5779 10.9711 45.0719 11.2927 43.7352 11.919C42.3984 12.5453 41.2647 13.4594 40.3509 14.6444L40.1648 12.2576C40.131 11.8174 39.7587 11.4789 39.3187 11.4789H33.4132C32.9564 11.4789 32.5672 11.8513 32.5672 12.3253V38.4277C32.5672 38.8847 32.9394 39.2741 33.4132 39.2741H39.7418C40.1986 39.2741 40.5878 38.9017 40.5878 38.4277V21.043C41.0278 20.2813 41.6031 19.6719 42.3138 19.2656C43.0076 18.8424 43.8367 18.6393 44.7843 18.6393C45.6473 18.6393 46.341 18.7578 46.8825 18.9778C47.424 19.2148 47.847 19.638 48.1347 20.2813C48.4223 20.9076 48.5746 21.8048 48.5746 22.9558V38.4446C48.5746 38.9017 48.9469 39.291 49.4207 39.291H55.7492C56.2061 39.291 56.5953 38.9186 56.5953 38.4446V21.3646C57.0014 20.5013 57.5598 19.8411 58.2705 19.3672C58.9643 18.8932 59.8272 18.6562 60.8087 18.6562C61.6716 18.6562 62.3654 18.7747 62.9069 18.9948C63.4484 19.2317 63.8545 19.6549 64.1591 20.2813C64.4467 20.9076 64.599 21.7878 64.599 22.905V38.4446C64.599 38.9017 64.9713 39.291 65.4451 39.291H71.7905C72.2474 39.291 72.6366 38.9186 72.6366 38.4446V21.7201C72.6366 17.9114 71.8751 15.186 70.3353 13.5102C68.8124 11.8344 66.6296 10.988 63.8206 10.988L63.7868 10.9711ZM176.939 1.83014H170.306C169.832 1.83014 169.46 2.20255 169.46 2.67652V18.1992H155.28V2.67652C155.28 2.20255 154.907 1.83014 154.434 1.83014H147.767C147.293 1.83014 146.921 2.20255 146.921 2.67652V38.4277C146.921 38.9017 147.293 39.2741 147.767 39.2741H154.434C154.907 39.2741 155.28 38.9017 155.28 38.4277V24.9025H169.46V38.4277C169.46 38.9017 169.832 39.2741 170.306 39.2741H176.939C177.413 39.2741 177.785 38.9017 177.785 38.4277V2.67652C177.785 2.20255 177.413 1.83014 176.939 1.83014ZM184.689 1.88092C184.232 1.88092 183.843 2.25333 183.843 2.7273V38.4277C183.843 38.8847 184.215 39.2741 184.689 39.2741H191.339C191.813 39.2741 192.185 38.9017 192.185 38.4277V25.021H197.329L204.267 38.817C204.402 39.1048 204.707 39.2741 205.011 39.2741H212.05C212.676 39.2741 213.083 38.6139 212.795 38.0553L205.485 23.7514C207.617 22.7696 209.258 21.4493 210.392 19.7734C211.526 18.0976 212.084 15.897 212.084 13.2055C212.084 10.7679 211.526 8.71969 210.409 7.02692C209.292 5.33416 207.685 4.06458 205.586 3.20128C203.488 2.33797 201.001 1.89785 198.124 1.89785H184.672M202.355 16.9127C201.39 17.759 200.002 18.1822 198.175 18.1822H192.219V8.55041H198.175C200.019 8.55041 201.424 8.9736 202.371 9.81998C203.319 10.6664 203.793 11.8513 203.793 13.3917C203.793 14.9321 203.319 16.0663 202.355 16.9127ZM95.1418 12.0883C93.4328 11.3435 91.4868 10.9711 89.2701 10.9711C86.8842 10.9711 84.786 11.3604 82.9754 12.156C81.148 12.9516 79.7435 14.018 78.7621 15.3892C77.9668 16.5064 77.493 17.7083 77.3407 19.0286C77.2899 19.5195 77.6791 19.9596 78.1867 19.9596H84.5322C84.9383 19.9596 85.2767 19.6549 85.3444 19.2487C85.4629 18.5716 85.7505 18.0468 86.2243 17.6405C86.8504 17.0989 87.7303 16.828 88.864 16.828C90.1331 16.828 91.0638 17.1835 91.6729 17.8606C92.2821 18.5546 92.5867 19.5195 92.5867 20.7722V22.2956H89.5747C85.2937 22.2956 82.0786 23.0913 79.9127 24.6655C77.7468 26.2567 76.6638 28.5081 76.6638 31.4366C76.6638 33.0278 77.0869 34.4666 77.916 35.7362C78.7621 37.0058 79.8958 38.0045 81.3341 38.7155C82.7724 39.4264 84.3461 39.7819 86.0889 39.7819C88.9994 39.7819 91.2837 38.7832 92.9759 36.8026V38.4277C92.9759 38.8847 93.3481 39.2741 93.8219 39.2741H99.7782C100.235 39.2741 100.624 38.9017 100.624 38.4277C100.624 36.8703 100.624 33.5695 100.624 32.3337V20.8229C100.624 18.6901 100.134 16.8788 99.169 15.4061C98.2045 13.9334 96.8677 12.8331 95.1587 12.0883H95.1418ZM90.7761 33.0616C89.947 33.5356 88.9825 33.7726 87.8826 33.7726C86.9012 33.7726 86.1228 33.5187 85.5305 32.9939C84.9383 32.4692 84.6506 31.7921 84.6506 30.9457C84.6506 29.7438 85.0568 28.762 85.8859 27.9833C86.715 27.2047 87.9672 26.8153 89.6932 26.8153H92.5698V31.3519C92.2144 32.0121 91.6222 32.5877 90.793 33.0616H90.7761ZM139.831 33.1632C139.441 33.197 139.035 33.214 138.612 33.214C137.58 33.214 136.853 33.0108 136.43 32.6215C136.006 32.2322 135.787 31.4874 135.787 30.3871V17.776H139.594C140.051 17.776 140.44 17.4036 140.44 16.9296V11.8174C140.44 11.3604 140.068 10.9711 139.594 10.9711H135.787V5.45265C135.787 4.9956 135.414 4.60627 134.94 4.60627H128.612C128.155 4.60627 127.766 4.97868 127.766 5.45265V10.9711H124.805C124.348 10.9711 123.959 11.3435 123.959 11.8174V16.9296C123.959 17.3866 124.331 17.776 124.805 17.776H127.766V31.3519C127.766 34.2635 128.477 36.3964 129.915 37.7506C131.336 39.1048 133.401 39.7819 136.091 39.7819C137.563 39.7819 138.917 39.5957 140.169 39.2402C140.524 39.1387 140.761 38.8001 140.761 38.4277V33.9757C140.761 33.4679 140.321 33.0955 139.831 33.1463V33.1632ZM120.71 11.0896C120.236 11.0049 119.711 10.9711 119.085 10.9711C117.765 10.9711 116.733 11.1065 115.549 11.7667C114.483 12.3761 113.637 13.0701 112.926 14.3397L112.74 12.2576C112.706 11.8174 112.334 11.4789 111.894 11.4789H106.005C105.548 11.4789 105.159 11.8513 105.159 12.3253V38.4277C105.159 38.8847 105.531 39.2741 106.005 39.2741H112.334C112.791 39.2741 113.18 38.9017 113.18 38.4277V22.7019C113.18 21.3816 114.077 19.7396 115.126 18.9948C116.073 18.3007 117.122 17.8268 118.561 17.7083C118.95 17.6744 119.576 17.7083 120.422 17.776C120.913 17.8268 121.336 17.4374 121.336 16.9465L121.42 11.9529C121.42 11.5297 121.133 11.1911 120.71 11.1065V11.0896Z" fill="#00C4CC"/>
</svg>
