<?xml version="1.0" encoding="utf-8"?>
<svg xmlns="http://www.w3.org/2000/svg" width="1000" height="200" viewBox="0 0 1000 200" fill="none">
<path fill-rule="evenodd" clip-rule="evenodd" d="M345.228 99.5979C345.228 75.9256 355.792 48.8127 391.555 48.8127C427.317 48.8127 438.003 75.9256 438.003 99.6948C438.003 123.464 427.693 151.364 391.676 151.364C357.064 151.364 345.228 125.402 345.228 99.6948V99.5979ZM365.326 99.5979C365.326 125.427 376.532 134.597 391.555 134.597C406.953 134.597 417.892 125.172 417.892 99.4646C417.892 75.1624 407.837 65.3615 391.676 65.3615C375.515 65.3615 365.326 75.1624 365.326 99.4646V99.5979Z" fill="#2B2A2E"/>
<path d="M309.841 70.8374C303.989 68.0389 296.345 65.8703 290.457 65.8703C284.569 65.8703 276.21 67.5301 276.21 76.7736C276.21 82.831 282.825 86.1989 291.22 90.2695C305.092 97.0174 317.57 103.499 317.57 121.065C317.57 143.587 302.293 150.468 286.132 150.468C275.059 150.468 261.696 147.79 254.948 144.616L259.661 127.425C266.93 130.866 277.228 133.798 285.248 133.798C291.22 133.798 298.356 131.242 298.356 122.216C298.356 115.468 293.001 111.313 280.535 105.667C266.918 99.6827 257.517 94.0856 257.517 77.9245C257.517 55.0155 276.101 49.5396 288.446 49.5396C299.349 49.5396 309.041 51.8293 314.917 54.5067L309.841 70.8374Z" fill="#2B2A2E"/>
<path fill-rule="evenodd" clip-rule="evenodd" d="M495.802 110.319C502.792 110.319 506.112 113.469 510.812 123.646H510.8C514.108 130.902 518.82 142.23 520.989 148.844H541.257C537.053 138.414 528.985 120.593 525.35 113.082C523.32 108.455 519.653 104.741 515.053 102.651C524.599 99.4646 531.347 92.0867 531.347 78.3364C531.347 55.0518 513.017 51.1024 490.363 51.1024H466.133V148.881H483.966V110.319H495.802ZM492.35 67.0212C503.931 67.0212 512.714 69.1777 512.714 80.505C512.714 89.0338 507.881 94.3764 500.236 95.2729H483.954V67.0212H492.35Z" fill="#2B2A2E"/>
<path fill-rule="evenodd" clip-rule="evenodd" d="M619.118 51.1024H601.552L564.117 148.844H584.107L592.03 125.305H628.604L636.54 148.844H656.517L619.118 51.1024ZM617.64 102.348L622.777 117.116L610.335 107.654L597.881 117.116L603.03 102.348L590.188 93.4314L605.816 93.7585L610.335 78.7968L614.842 93.7585L630.482 93.4314L617.64 102.348Z" fill="#2B2A2E"/>
<path d="M726.528 49.2004C687.228 49.2004 677.536 74.908 677.536 100.991V101.124C677.536 126.832 687.846 150.625 726.782 150.625C734.297 150.628 741.781 149.688 749.061 147.827L747.147 130.515C740.754 132.475 734.112 133.507 727.424 133.58C708.465 133.58 697.768 122.761 697.768 101.379C697.768 78.7241 707.06 66.0036 726.916 66.0036C733.276 65.9895 739.595 67.0209 745.621 69.0565L748.674 51.9989C741.422 50.2301 733.992 49.2912 726.528 49.2004Z" fill="#2B2A2E"/>
<path fill-rule="evenodd" clip-rule="evenodd" d="M773.376 99.5979C773.376 75.9256 783.94 48.8127 819.691 48.8127C855.441 48.8127 866.151 75.9256 866.151 99.6948C866.151 123.464 855.841 151.364 819.824 151.364C785.212 151.364 773.376 125.402 773.376 99.6948V99.5979ZM793.474 99.5979C793.474 125.427 804.68 134.597 819.691 134.597C835.101 134.597 846.04 125.172 846.04 99.4646C846.04 75.1624 835.985 65.3615 819.824 65.3615C803.663 65.3615 793.474 75.1624 793.474 99.4646V99.5979Z" fill="#2B2A2E"/>
<path d="M935.641 144.641H952.311L975.862 74.1447L978.915 148.844H998.008L992.908 51.1024H966.946L944.679 120.593L921.903 51.1024H896.825L891.737 148.844H909.679L912.357 74.1447L935.641 144.641Z" fill="#2B2A2E"/>
<path d="M99.9037 2C80.5386 2 61.6084 7.74241 45.5069 18.5011C29.4055 29.2597 16.8559 44.5514 9.44518 62.4424C2.03449 80.3334 0.0955131 100.02 3.87345 119.013C7.65139 138.006 16.9766 155.452 30.6697 169.146C44.3629 182.839 61.8091 192.164 80.8021 195.942C99.7951 199.72 119.482 197.781 137.373 190.37C155.264 182.959 170.556 170.41 181.314 154.308C192.073 138.207 197.815 119.277 197.815 99.9116C197.79 73.9517 187.466 49.0624 169.109 30.706C150.753 12.3496 125.864 2.02566 99.9037 2V2ZM19.0618 99.9116C19.0472 81.003 25.691 62.6931 37.8276 48.1936L133.013 70.824V93.1515L45.4115 113.747L76.6433 177.313C60.0097 172.295 45.4312 162.06 35.0621 148.12C24.693 134.18 19.0833 117.273 19.0618 99.8995V99.9116ZM103.417 180.644L122.801 163.962L111.74 151.012L91.3386 168.542L70.174 125.462L150.132 106.672V57.3403L52.8742 34.2253C63.1036 26.8935 74.904 22.0521 87.3351 20.0868C99.7663 18.1216 112.485 19.0868 124.477 22.9055C136.469 26.7243 147.404 33.291 156.41 42.0826C165.415 50.8741 172.244 61.6475 176.35 73.5443C180.456 85.4411 181.727 98.1326 180.062 110.607C178.397 123.082 173.841 134.996 166.757 145.399C159.674 155.802 150.259 164.407 139.262 170.528C128.265 176.649 115.991 180.117 103.417 180.657V180.644ZM136.975 121.936L140.84 134.766L154.238 134.475L143.238 142.119L147.648 154.767L136.975 146.662L126.302 154.767L130.712 142.119L119.711 134.475L133.11 134.766L136.975 121.936Z" fill="#34CDD7"/>
</svg>