<svg xmlns="http://www.w3.org/2000/svg" viewBox="0 0 515.75 64.98"><defs><style>.cls-1{fill:#ff4b00;}</style></defs><title>资源 1</title><g id="图层_2" data-name="图层 2"><g id="图层_1-2" data-name="图层 1"><rect class="cls-1" x="129.3" y="0.92" width="6.61" height="4.49" rx="0.66"/><path class="cls-1" d="M135.82,17.86h-11.6V12.11h15.34a.66.66,0,0,0,.66-.66V7.18a.67.67,0,0,0-.66-.66H124.22v-5a.66.66,0,0,0-.66-.66h-5.12a.67.67,0,0,0-.66.66v5H102.51a.66.66,0,0,0-.66.66v4.27a.65.65,0,0,0,.66.66h15.27v5.75H106.3a4.55,4.55,0,0,0-4.55,4.55V64.3a.66.66,0,0,0,.66.66h5.12a.65.65,0,0,0,.66-.66v-40a.85.85,0,0,1,.84-.84h8.75v7.22h-6.55a.66.66,0,0,0-.66.66V35.6a.67.67,0,0,0,.66.66h6.55v7.22h-6.46a.66.66,0,0,0-.66.66v4.27a.67.67,0,0,0,.66.66h6.46V64.3a.66.66,0,0,0,.66.66h5.12a.65.65,0,0,0,.66-.66V49.07h6.46a.66.66,0,0,0,.66-.66V44.14a.65.65,0,0,0-.66-.66h-6.46V36.26h6.55a.67.67,0,0,0,.66-.66V31.33a.66.66,0,0,0-.66-.66h-6.55V23.45h8.87a.85.85,0,0,1,.84.84V58.07a1.3,1.3,0,0,1-1.3,1.3h-2a.66.66,0,0,0-.66.66V64.3a.65.65,0,0,0,.66.66h4.45a5.32,5.32,0,0,0,5.32-5.32V22.41A4.55,4.55,0,0,0,135.82,17.86Z"/><path class="cls-1" d="M98.55,6.42H86.69l.85-4.75a.66.66,0,0,0-.65-.78H81.73a.66.66,0,0,0-.65.55l-.89,5h-4a.66.66,0,0,0-.66.66v4.38a.65.65,0,0,0,.66.65h3L75.8,32.47c-.19,1-.1,3.79,3.11,3.79h8V45c-4.54.21-8.9.25-10.5.25a.67.67,0,0,0-.66.66l0,5.13a.66.66,0,0,0,.66.67h.53c4,0,7.3,0,10-.11V64.3a.66.66,0,0,0,.66.66h5.13a.66.66,0,0,0,.66-.66V51.2a29.88,29.88,0,0,0,5.29-.9.66.66,0,0,0,.46-.64V44.42a.66.66,0,0,0-.82-.64,32.42,32.42,0,0,1-4.93.79V36.26h5.22a.67.67,0,0,0,.66-.66V31.22a.67.67,0,0,0-.66-.66H93.33v-12a.66.66,0,0,0-.66-.66H87.54a.66.66,0,0,0-.66.66v12h-4l2.79-18.45H98.55a.66.66,0,0,0,.66-.65V7.08A.67.67,0,0,0,98.55,6.42Z"/><path class="cls-1" d="M216.52,40.79H205.13V36a.67.67,0,0,0-.66-.66h-5.13a.66.66,0,0,0-.65.66v4.76H153.28a.65.65,0,0,0-.65.66v5.12a.66.66,0,0,0,.65.66h45.41V58.58a.8.8,0,0,1-.8.8h-9a.66.66,0,0,0-.66.66v4.27a.65.65,0,0,0,.66.66h12.27A3.94,3.94,0,0,0,205.13,61V47.23h11.39a.66.66,0,0,0,.66-.66V41.45A.65.65,0,0,0,216.52,40.79Z"/><path class="cls-1" d="M160.48,33h43c6.1-.06,9.78-1,11.82-1.77a2.5,2.5,0,0,0,1.57-2.32l0-4.81a.41.41,0,0,0-.62-.36c-3.79,2.18-8.85,2.53-13,2.82h-40a2.64,2.64,0,0,1-2.64-2.64v-2.7h.2l46.3,0a4.55,4.55,0,0,0,4.54-4.55V7.13a4.55,4.55,0,0,0-4.54-4.55H158.76a4.55,4.55,0,0,0-4.55,4.55V26.7A6.27,6.27,0,0,0,160.48,33Zm.19-23.09A.84.84,0,0,1,161.5,9h42.93a.84.84,0,0,1,.84.84v4a.83.83,0,0,1-.84.84H161.5a.83.83,0,0,1-.83-.84Z"/><path class="cls-1" d="M170.84,50.23a.65.65,0,0,0-.85.06l-3.35,3.44a.66.66,0,0,0,.06,1l6.62,5.14a.65.65,0,0,0,.88-.07l3.21-3.42a.65.65,0,0,0-.09-1Z"/><path class="cls-1" d="M62.63,13.93H43.46V9.4H60.92a.67.67,0,0,0,.67-.67V4.48a.67.67,0,0,0-.67-.67H43.46V1.06a.67.67,0,0,0-.67-.67h-5.1a.67.67,0,0,0-.67.67V3.81H20.48a.67.67,0,0,0-.67.67V8.73a.67.67,0,0,0,.67.67H37v4.53H18.77a.67.67,0,0,0-.67.67v4.25a.67.67,0,0,0,.67.67H62.63a.67.67,0,0,0,.67-.67V14.6A.67.67,0,0,0,62.63,13.93Z"/><path class="cls-1" d="M62,44.67c-3.47,1.38-10.85,1.67-10.85,1.67L51,46.16a28.8,28.8,0,0,1-3.32-5.52l-.29-.6H57.66a4.55,4.55,0,0,0,4.55-4.55V27.25a4.55,4.55,0,0,0-4.55-4.55H24.29a4.55,4.55,0,0,0-4.55,4.54V35.5a4.55,4.55,0,0,0,4.55,4.55h8.63l-.93.75a36.81,36.81,0,0,1-13,7,.65.65,0,0,0-.48.63v5a.66.66,0,0,0,.84.63,40.92,40.92,0,0,0,6.12-2.25l.6-.28v9.52A3.25,3.25,0,0,0,29.3,64.3a67.4,67.4,0,0,0,13.33-1,2.63,2.63,0,0,0,2-2.47V57.39a.41.41,0,0,0-.59-.37,29.49,29.49,0,0,1-7.91,1.66,19.35,19.35,0,0,1-3,0,.66.66,0,0,1-.65-.65V47.84l.19-.13a48.87,48.87,0,0,0,7.8-6.58l.43-.46.26.57A51.44,51.44,0,0,0,61.88,63.91a.41.41,0,0,0,.62-.35l.09-5.88a.66.66,0,0,0-.31-.56,30.59,30.59,0,0,1-6.65-5.53l-.24-.3.87-.07a18.35,18.35,0,0,0,6.3-1.31.63.63,0,0,0,.37-.59v-4A.66.66,0,0,0,62,44.67ZM27,34.35a.84.84,0,0,1-.84-.84V29.23a.84.84,0,0,1,.84-.84H54.93a.85.85,0,0,1,.84.84v4.28a.85.85,0,0,1-.84.84Z"/><path class="cls-1" d="M15.62,3.34,11.47,7.5A31.69,31.69,0,0,0,8.61,4c-.7-.74-1.4-1.45-2.08-2.12L4.82.2a.66.66,0,0,0-1,0L.46,3.61a.68.68,0,0,0,0,.95L4,8.09A23.6,23.6,0,0,1,7,11.93l-6.3,6.3A2.52,2.52,0,0,0,0,20V25.2a.68.68,0,0,0,1.15.48l7.58-7.59V32.15l-8,8A2.52,2.52,0,0,0,0,41.92v5.19a.68.68,0,0,0,1.15.48L8.73,40V48.4c0,3.77-1.95,6.44-5.07,8.88L.54,59.54a.66.66,0,0,0-.15.93l2.79,3.89a.68.68,0,0,0,.95.15l4.31-3.23c3.59-3.06,6.41-7.06,6.41-12.88V17.76a17,17,0,0,0-.75-5l2.3-2.3a1.26,1.26,0,0,0,.37-.89V3.82A.68.68,0,0,0,15.62,3.34Z"/><path class="cls-1" d="M291.43,60H270.89V39.54h18.22a.39.39,0,0,0,.4-.39v-2.8a.4.4,0,0,0-.4-.39H270.89V21.81a.4.4,0,0,0-.4-.4h-3.22a.39.39,0,0,0-.39.4V36H249.33a.4.4,0,0,0-.4.39v2.8a.39.39,0,0,0,.4.39h17.55V60H247a.4.4,0,0,0-.4.4v2.79a.4.4,0,0,0,.4.4h44.42a.4.4,0,0,0,.4-.4V60.44A.4.4,0,0,0,291.43,60Z"/><path class="cls-1" d="M291.43,10.27H250.55a71.34,71.34,0,0,0,2.18-7.19.4.4,0,0,0-.38-.5h-3.18a.39.39,0,0,0-.38.3,60.21,60.21,0,0,1-2.4,7.39H230.21a.4.4,0,0,0-.4.4v2.79a.4.4,0,0,0,.4.4h14.66a60.62,60.62,0,0,1-4.24,7.7,66.71,66.71,0,0,1-14.09,14.2.41.41,0,0,0-.17.32V39.5a.39.39,0,0,0,.61.33,57.55,57.55,0,0,0,10.51-8.77V64.58a.38.38,0,0,0,.39.39h3.22a.39.39,0,0,0,.4-.39V26.42c.61-.79,1.22-1.6,1.8-2.44a63.88,63.88,0,0,0,5.79-10.12h42.34a.4.4,0,0,0,.4-.4V10.67A.4.4,0,0,0,291.43,10.27Z"/><path class="cls-1" d="M515.35,7.75H485V3a.4.4,0,0,0-.4-.4h-3.22A.4.4,0,0,0,481,3V7.75H450.69a.39.39,0,0,0-.39.39v2.8a.39.39,0,0,0,.39.39h6.79l-1.39,10.06a2.77,2.77,0,0,0,2.75,3.14h47.79l.45,2.86a.39.39,0,0,0,.39.33h3.22a.39.39,0,0,0,.39-.45l-1.6-10.19a.39.39,0,0,0-.39-.34h-3.22a.4.4,0,0,0-.39.46l.59,3.75H461a.67.67,0,0,1-.66-.75l1.17-8.87h53.84a.39.39,0,0,0,.4-.39V8.14A.39.39,0,0,0,515.35,7.75Z"/><path class="cls-1" d="M505,30.22H460.87A2.77,2.77,0,0,0,458.1,33V64.58a.39.39,0,0,0,.39.39h3.23a.39.39,0,0,0,.39-.39V54.9H498a.39.39,0,0,0,.4-.39v-2.8a.39.39,0,0,0-.4-.39H462.11V44.14H498a.4.4,0,0,0,.4-.39V41a.4.4,0,0,0-.4-.4H462.11V34.47a.66.66,0,0,1,.66-.66h40.37a.65.65,0,0,1,.65.66v26a.65.65,0,0,1-.65.66c-.69,0-1.66,0-3-.06a59.3,59.3,0,0,1-6.45-.61.39.39,0,0,0-.45.39v2.74a.4.4,0,0,0,.33.4c2,.3,4.54.51,5.77.57,1.69.08,2.57.1,4.41.11h1a3,3,0,0,0,3-3V33A2.77,2.77,0,0,0,505,30.22Z"/><path class="cls-1" d="M440.71,11.64H418.56c.4-2.24.71-4.53.9-6.8a.39.39,0,0,0-.39-.43h-2.93a.4.4,0,0,0-.4.36,65.42,65.42,0,0,1-3.08,15.77,54.69,54.69,0,0,1-6.05,12.06.36.36,0,0,0-.07.22v4.64a.39.39,0,0,0,.7.25,53.12,53.12,0,0,0,7.47-12.48A77.4,77.4,0,0,0,423,46l0,.05a48.55,48.55,0,0,1-16.28,14.52.4.4,0,0,0-.2.34v3.45a.4.4,0,0,0,.57.36,48.79,48.79,0,0,0,18.06-15.19C430,56.6,436.64,61.81,440,63.38a.4.4,0,0,0,.57-.36V59.45a.4.4,0,0,0-.17-.33,52.91,52.91,0,0,1-13-13c5.88-9.56,7.43-20.54,7.92-30.89h5.34a.4.4,0,0,0,.4-.4V12A.4.4,0,0,0,440.71,11.64ZM425.28,42.56a67,67,0,0,1-7.95-25.22c.18-.69.35-1.4.51-2.11h13.83C431,26.46,428.72,36.37,425.28,42.56Z"/><path class="cls-1" d="M405.74,47.72h-8.33l3.4-8.17a3.67,3.67,0,0,0,.3-1.46V35.66a.4.4,0,0,0-.4-.4H389.64c1.23-.92,2.48-1.93,3.73-3a31.67,31.67,0,0,0,4-4.34h9.16a.4.4,0,0,0,.4-.39v-2.8a.4.4,0,0,0-.4-.4h-6.68a58.33,58.33,0,0,0,7.29-19.43.4.4,0,0,0-.39-.47h-3a.39.39,0,0,0-.38.31c-.4,1.91-.89,3.83-1.48,5.73h-9.77V3a.4.4,0,0,0-.39-.39h-3.22a.4.4,0,0,0-.4.39v7.47H378a.4.4,0,0,0-.4.4v2.8a.4.4,0,0,0,.4.39h10.22V24.31H376.83a.39.39,0,0,0-.39.4v2.8a.39.39,0,0,0,.39.39h15.81c-.46.51-.93,1-1.42,1.47a57.3,57.3,0,0,1-15.32,9.69.39.39,0,0,0-.24.37v3a.39.39,0,0,0,.52.37,47.33,47.33,0,0,0,8.13-4H396.9l-3.6,8.87h-15a.38.38,0,0,0-.39.39v2.8a.38.38,0,0,0,.39.39h15.06V61a.41.41,0,0,1-.39.4c-1.24,0-4.12,0-5.68-.1-2-.14-4.36-.33-5.7-.56a.39.39,0,0,0-.46.39v2.7a.4.4,0,0,0,.31.39c1,.19,3.28.41,4.67.55s5.88.2,7.25.17h3.37a.39.39,0,0,0,.39-.39V51.3h8.64a.39.39,0,0,0,.4-.39v-2.8A.39.39,0,0,0,405.74,47.72ZM392.19,24.31V14h8.55a48.45,48.45,0,0,1-5.26,10.27Z"/><path class="cls-1" d="M325.08,58.21a47.66,47.66,0,0,1-9.5,1.46c-5.64.23-12.47.21-14.17.2a.39.39,0,0,0-.39.4v2.8a.38.38,0,0,0,.39.39c2,0,10.67-.05,13.92-.21a40.26,40.26,0,0,0,10-1.48.38.38,0,0,0,.25-.37V58.59A.39.39,0,0,0,325.08,58.21Z"/><rect class="cls-1" x="351.38" y="6.43" width="8.8" height="3.59" rx="0.4"/><path class="cls-1" d="M366.07,61.39h-5.19a4.79,4.79,0,0,1-2.62-.78A24.25,24.25,0,0,1,350.58,53,50.84,50.84,0,0,0,362,40.57a.4.4,0,0,0-.34-.61h-3.45a.4.4,0,0,0-.32.17A46.33,46.33,0,0,1,349,49.61c-.08-.24-.19-.47-.27-.71a73.65,73.65,0,0,1-2.55-13l18.38-1.68a.39.39,0,0,0,.36-.43l-.26-2.78a.39.39,0,0,0-.43-.36l-18.43,1.68q-.46-5.23-.64-11.51l16.58-1a.39.39,0,0,0,.37-.42l-.16-2.79a.39.39,0,0,0-.42-.37l-16.43.95c0-4,.2-10.13.46-14.27a.4.4,0,0,0-.39-.42H342a.4.4,0,0,0-.39.38c-.25,4.75-.49,10.21-.52,14.54l-11,.64a.39.39,0,0,0-.37.41l.16,2.79a.4.4,0,0,0,.42.38l10.83-.63c.13,4.29.35,8.15.65,11.65l-15,1.37a.39.39,0,0,0-.36.43l.25,2.78a.39.39,0,0,0,.43.36l15-1.37A67.48,67.48,0,0,0,345,50.58c.17.48.35,1,.54,1.4a90.62,90.62,0,0,1-16.13,7.91.39.39,0,0,0-.28.38v3.09a.4.4,0,0,0,.52.38,92.49,92.49,0,0,0,17.58-8.47,24.56,24.56,0,0,0,9.15,8.67,9,9,0,0,0,4.21,1h5.47a.39.39,0,0,0,.4-.39v-2.8A.39.39,0,0,0,366.07,61.39Z"/><path class="cls-1" d="M303.08,28.32h12.38l-12.95,20a1.32,1.32,0,0,0,1.12,2c3.3,0,9-.1,10.94-.15a41.44,41.44,0,0,0,9.86-1.4.4.4,0,0,0,.28-.38V45.63a.4.4,0,0,0-.51-.38,41.73,41.73,0,0,1-9.38,1.37c-2.56.11-5.08.2-7.16.21l19.19-29.64a.4.4,0,0,0-.33-.61h-3.24a.42.42,0,0,0-.34.18l-5.16,8H307.09L319.66,4.57a.4.4,0,0,0-.34-.6H316.1a.4.4,0,0,0-.34.18L302,26.3A1.32,1.32,0,0,0,303.08,28.32Z"/></g></g></svg>